<svg width="50" height="50" viewBox="0 0 50 50" fill="none" xmlns="http://www.w3.org/2000/svg">
<g clip-path="url(#clip0)">
<path fill-rule="evenodd" clip-rule="evenodd" d="M49.1481 31.4703C52.7159 18.155 44.7857 4.41957 31.4705 0.851757C18.1552 -2.71605 4.41976 5.21412 0.851945 18.5294C-0.828509 24.8009 -0.0278678 31.3849 3.10631 37.0689C3.37754 37.561 3.99654 37.74 4.48852 37.4685C4.98041 37.1974 5.15956 36.5786 4.8882 36.0863C2.00922 30.8652 1.2739 24.8172 2.81754 19.0562C6.09481 6.82465 18.7122 -0.46003 30.9438 2.8174C43.1753 6.09483 50.4598 18.7122 47.1824 30.9436C43.905 43.1749 31.2876 50.4596 19.0562 47.1822C16.2975 46.443 13.74 45.2219 11.455 43.553C11.0012 43.2216 10.3647 43.3207 10.0331 43.7745C9.702 44.2286 9.80084 44.8648 10.2547 45.1964C12.7433 47.0141 15.5273 48.3436 18.5297 49.1481C31.8448 52.7159 45.5802 44.7857 49.1481 31.4703ZM36.4431 13.5565C36.0458 13.1592 35.4014 13.1592 35.0042 13.5565L25 23.5607L14.9958 13.5565C14.5983 13.1592 13.9542 13.1592 13.5567 13.5565C13.1594 13.9538 13.1594 14.5982 13.5567 14.9954L23.561 24.9997L13.5567 35.004C13.1594 35.4013 13.1594 36.0456 13.5567 36.4429C13.7553 36.6415 14.0158 36.7409 14.2763 36.7409C14.5367 36.7409 14.797 36.6415 14.9958 36.4429L25 26.4387L35.0042 36.4429C35.4016 36.8402 36.0458 36.8402 36.4431 36.4429C36.6417 36.2443 36.7411 35.9839 36.7411 35.7234C36.7411 35.4629 36.6417 35.2026 36.4431 35.0038L26.439 24.9997L36.4431 14.9956C36.8405 14.5981 36.8405 13.954 36.4431 13.5565Z" fill="#5C9078"/>
</g>
<defs>
<clipPath id="clip0">
<rect width="50" height="50" fill="white"/>
</clipPath>
</defs>
</svg>
