<svg width="37" height="37" viewBox="0 0 37 37" fill="none" xmlns="http://www.w3.org/2000/svg">
<path fill-rule="evenodd" clip-rule="evenodd" d="M8 5H2V7V8V13H35V8V7V5H29V7H24V5H12V7H8V5Z" fill="white"/>
<path d="M33.1702 4.01355C33.0946 4.01047 33.0189 4.00996 32.9432 4.0121H30.0902V1.56026C30.0903 0.579531 29.1541 0 28.1734 0H25.5433C24.5626 0 23.8493 0.579531 23.8493 1.56026V4.01201H13.1505V1.56026C13.1505 0.579531 12.4373 0 11.4566 0H8.82639C7.84574 0 6.90955 0.579531 6.90955 1.56026V4.01201H4.0566C2.23541 3.96124 0.717897 5.3965 0.667128 7.21761C0.664995 7.29321 0.665507 7.36898 0.668579 7.44457V33.2108C0.668579 35.1722 2.09505 36.9999 4.05652 36.9999H32.9433C34.9048 36.9999 36.3313 35.1722 36.3313 33.2108V7.44457C36.4058 5.62424 34.9906 4.08812 33.1702 4.01355ZM25.5433 1.78313H28.3072V6.68671H25.5433V1.78313ZM8.82648 1.78313H11.3675V6.68671H8.82648V1.78313ZM34.5481 33.2108C34.5481 34.1915 33.9241 35.2168 32.9433 35.2168H4.0566C3.07587 35.2168 2.4518 34.1915 2.4518 33.2108V14.2651H34.5481V33.2108ZM34.5481 7.44457V12.4819H2.45171V7.44457C2.3762 6.61094 2.9908 5.8739 3.82443 5.79839C3.90157 5.79139 3.97921 5.79037 4.05652 5.79523H6.90955V6.77596C6.90955 7.7567 7.84566 8.46993 8.82639 8.46993H11.4566C12.3671 8.49493 13.1255 7.77692 13.1505 6.86632C13.1514 6.8362 13.1514 6.80608 13.1505 6.77596V5.79514H23.8493V6.77588C23.8243 7.68647 24.5423 8.44485 25.4529 8.46985C25.4831 8.4707 25.5132 8.4707 25.5433 8.46985H28.1735C29.1542 8.46985 30.0903 7.75661 30.0903 6.77588V5.79514H32.9433C33.7788 5.7425 34.4986 6.37707 34.5513 7.21249C34.5562 7.28979 34.5551 7.36744 34.5481 7.44457Z" fill="white"/>
</svg>
