<svg width="37" height="37" viewBox="0 0 37 37" fill="none" xmlns="http://www.w3.org/2000/svg">
<g clip-path="url(#clip0)">
<path fill-rule="evenodd" clip-rule="evenodd" d="M30.3307 3.61186L36.5505 9.83167C37.1496 10.4315 37.1496 11.4053 36.5505 12.006L34.377 14.1795C33.7771 14.7793 32.8034 14.7793 32.2027 14.1795L25.9821 7.95809C25.3823 7.35823 25.3823 6.38444 25.9821 5.78458L28.1564 3.61186C28.7571 3.01122 29.7308 3.01122 30.3307 3.61186ZM32.0248 11.7383C32.0248 12.435 32.59 12.9994 33.2859 12.9994C33.9826 12.9994 34.547 12.4342 34.5478 11.7383C34.5478 11.0408 33.9826 10.4764 33.2859 10.4764C32.59 10.4764 32.0248 11.0416 32.0248 11.7383ZM24.6693 7.92486C24.7865 7.96186 24.8952 8.02563 24.9826 8.1138L32.0455 15.1806C32.3454 15.4806 32.3454 15.9679 32.0455 16.267L27.1647 21.147L28.3534 22.3364C29.2509 23.2347 29.191 24.7587 28.218 25.7317C27.7425 26.2088 27.1364 26.4623 26.5357 26.4969C26.5011 27.0975 26.2468 27.7029 25.7721 28.1784C25.2951 28.6539 24.6905 28.9074 24.0914 28.9428C24.0552 29.5426 23.8002 30.1488 23.3247 30.6235C22.8508 31.099 22.2438 31.3532 21.644 31.3887C21.6085 31.9885 21.3551 32.5947 20.8804 33.0694C19.9058 34.0424 18.3841 34.1053 17.4843 33.2056L14.6653 30.3873L13.2294 31.8224C12.628 32.4231 11.5944 32.3609 10.9197 31.687C10.2443 31.0108 10.1837 29.9772 10.7835 29.3781C10.1837 29.978 9.14926 29.9166 8.47383 29.2411C7.7984 28.5665 7.73778 27.5329 8.33843 26.9322C7.73778 27.5329 6.70259 27.4691 6.02873 26.796C5.3533 26.1206 5.29189 25.087 5.89254 24.4863C5.29189 25.087 4.25749 25.0248 3.58363 24.3509C2.90741 23.6747 2.8468 22.6403 3.44666 22.0412L4.80618 20.6817L0.221427 16.0978C-0.0777153 15.797 -0.0777153 15.3097 0.221427 15.0106C0.521357 14.7099 1.00864 14.7099 1.30857 15.0106L5.90514 19.6072C6.5168 19.1262 7.45753 19.212 8.08888 19.8433C8.76352 20.5196 8.82571 21.554 8.22428 22.1538C8.82571 21.554 9.86012 21.6154 10.534 22.2908C11.2102 22.9646 11.2708 23.9991 10.671 24.5989C11.2708 23.9991 12.3052 24.0612 12.9806 24.7351C13.6561 25.4097 13.7151 26.4449 13.1153 27.0456C13.7151 26.4441 14.7519 26.5063 15.4257 27.1794C16.0272 27.7832 16.1374 28.6672 15.732 29.2766L18.5707 32.1176C18.8643 32.412 19.424 32.3499 19.794 31.9814C20.1616 31.613 20.2246 31.0533 19.9294 30.7581L17.5977 28.4256C17.2985 28.1272 17.2985 27.6399 17.5977 27.34C17.8976 27.0401 18.3849 27.0401 18.684 27.34L21.0158 29.671C21.311 29.9662 21.8707 29.9032 22.2383 29.5356C22.606 29.1671 22.6697 28.6074 22.3753 28.313L20.0436 25.9813C19.7428 25.6805 19.7428 25.1933 20.0436 24.8949C20.3427 24.5942 20.8292 24.5942 21.1299 24.8949L23.4624 27.2259C23.7553 27.5195 24.3166 27.4581 24.685 27.0889C25.0534 26.7212 25.1148 26.1615 24.8204 25.8679L22.4887 23.5354C22.1879 23.2355 22.1879 22.7482 22.4887 22.4498C22.7894 22.1483 23.2743 22.1483 23.575 22.4498L25.9068 24.7808C26.2012 25.0744 26.7617 25.0114 27.1301 24.6438C27.4993 24.2754 27.5607 23.7157 27.2655 23.4204C27.2655 23.4204 18.9659 15.0854 17.3828 13.5574L17.3825 13.5571C17.1989 13.3806 16.7675 12.9659 15.8603 13.8739C15.5942 14.1399 15.3415 14.4769 15.1675 14.802L14.1095 16.7645C14.0056 16.9582 13.8293 17.1865 13.6222 17.3935C12.8303 18.1847 11.8187 18.5019 10.8434 18.2681C9.9719 18.0595 9.24294 17.4801 8.83831 16.6764C8.5557 16.1135 8.4943 15.5491 8.67457 15.1255L11.8219 7.72255C11.9352 7.45726 12.1564 7.1526 12.4453 6.86369C12.9405 6.36696 14.7787 4.81929 17.604 5.70649L24.6693 7.92486Z" fill="white"/>
</g>
<defs>
<clipPath id="clip0">
<rect width="37" height="37" fill="white"/>
</clipPath>
</defs>
</svg>
