<svg width="37" height="37" viewBox="0 0 37 37" fill="none" xmlns="http://www.w3.org/2000/svg">
<path d="M36.5354 17.3235L19.8152 0.546468C19.464 0.194121 18.9968 0 18.5002 0C18.0033 0 17.5361 0.193947 17.1851 0.546468L0.464679 17.3235C-0.0953752 17.8853 -0.0299296 18.3683 0.0587819 18.5977C0.147661 18.8268 0.412791 19.2259 1.19044 19.2259H3.07313V34.137C3.07313 35.6889 4.35794 37 5.81281 37H14.2876V26.8931H22.4892V37H31.1871C32.6467 37 33.8711 35.6621 33.8711 34.137V19.2259H35.8095C36.5872 19.2259 36.8521 18.8268 36.9412 18.5977C37.0299 18.3683 37.0955 17.8855 36.5354 17.3235Z" fill="white"/>
</svg>
