<svg width="392" height="340" viewBox="0 0 392 340" fill="none" xmlns="http://www.w3.org/2000/svg">
<rect width="392" height="340" rx="10" fill="#9BAFCE" fill-opacity="0.94"/>
<rect x="46" y="108" width="300" height="200" fill="#0C2C5D" fill-opacity="0.6"/>
<path d="M165.968 200.2V217H164L153.92 204.472V217H151.52V200.2H153.488L163.568 212.728V200.2H165.968ZM178.581 217.192C176.885 217.192 175.357 216.824 173.997 216.088C172.637 215.336 171.565 214.304 170.781 212.992C170.013 211.68 169.629 210.216 169.629 208.6C169.629 206.984 170.013 205.52 170.781 204.208C171.565 202.896 172.637 201.872 173.997 201.136C175.357 200.384 176.885 200.008 178.581 200.008C180.261 200.008 181.781 200.384 183.141 201.136C184.501 201.872 185.565 202.896 186.333 204.208C187.101 205.504 187.485 206.968 187.485 208.6C187.485 210.232 187.101 211.704 186.333 213.016C185.565 214.312 184.501 215.336 183.141 216.088C181.781 216.824 180.261 217.192 178.581 217.192ZM178.581 215.056C179.813 215.056 180.917 214.776 181.893 214.216C182.885 213.656 183.661 212.888 184.221 211.912C184.797 210.92 185.085 209.816 185.085 208.6C185.085 207.384 184.797 206.288 184.221 205.312C183.661 204.32 182.885 203.544 181.893 202.984C180.917 202.424 179.813 202.144 178.581 202.144C177.349 202.144 176.229 202.424 175.221 202.984C174.229 203.544 173.445 204.32 172.869 205.312C172.309 206.288 172.029 207.384 172.029 208.6C172.029 209.816 172.309 210.92 172.869 211.912C173.445 212.888 174.229 213.656 175.221 214.216C176.229 214.776 177.349 215.056 178.581 215.056ZM197.598 200.2H199.998V217H197.598V200.2ZM220.604 217L220.58 204.76L214.508 214.96H213.404L207.332 204.832V217H205.028V200.2H206.996L214.004 212.008L220.916 200.2H222.884L222.908 217H220.604ZM239.59 208.504H241.894V215.056C241.062 215.744 240.094 216.272 238.99 216.64C237.886 217.008 236.734 217.192 235.534 217.192C233.838 217.192 232.31 216.824 230.95 216.088C229.59 215.336 228.518 214.312 227.734 213.016C226.966 211.704 226.582 210.232 226.582 208.6C226.582 206.968 226.966 205.496 227.734 204.184C228.518 202.872 229.59 201.848 230.95 201.112C232.326 200.376 233.87 200.008 235.582 200.008C236.926 200.008 238.142 200.232 239.23 200.68C240.334 201.112 241.27 201.752 242.038 202.6L240.55 204.088C239.206 202.792 237.582 202.144 235.678 202.144C234.398 202.144 233.246 202.424 232.222 202.984C231.214 203.528 230.422 204.296 229.846 205.288C229.27 206.264 228.982 207.368 228.982 208.6C228.982 209.816 229.27 210.92 229.846 211.912C230.422 212.888 231.214 213.656 232.222 214.216C233.246 214.776 234.39 215.056 235.654 215.056C237.158 215.056 238.47 214.696 239.59 213.976V208.504Z" fill="white"/>
<path d="M103.712 50.576H92.192V46.4H119.984V50.576H108.464V80H103.712V50.576ZM126.114 71.168C124.898 71.168 123.858 70.752 122.994 69.92C122.162 69.088 121.746 68.032 121.746 66.752C121.746 65.536 122.178 64.512 123.042 63.68C123.906 62.816 124.93 62.384 126.114 62.384C127.298 62.384 128.306 62.816 129.138 63.68C130.002 64.512 130.434 65.536 130.434 66.752C130.434 68.032 130.002 69.088 129.138 69.92C128.306 70.752 127.298 71.168 126.114 71.168ZM138.712 46.4H143.512V80H138.712V46.4ZM156.067 71.168C154.851 71.168 153.811 70.752 152.947 69.92C152.115 69.088 151.699 68.032 151.699 66.752C151.699 65.536 152.131 64.512 152.995 63.68C153.859 62.816 154.883 62.384 156.067 62.384C157.251 62.384 158.259 62.816 159.091 63.68C159.955 64.512 160.387 65.536 160.387 66.752C160.387 68.032 159.955 69.088 159.091 69.92C158.259 70.752 157.251 71.168 156.067 71.168ZM199.817 80L199.769 55.52L187.625 75.92H185.417L173.273 55.664V80H168.665V46.4H172.601L186.617 70.016L200.441 46.4H204.377L204.425 80H199.817ZM217.005 71.168C215.789 71.168 214.749 70.752 213.885 69.92C213.053 69.088 212.637 68.032 212.637 66.752C212.637 65.536 213.069 64.512 213.933 63.68C214.797 62.816 215.821 62.384 217.005 62.384C218.189 62.384 219.197 62.816 220.029 63.68C220.893 64.512 221.325 65.536 221.325 66.752C221.325 68.032 220.893 69.088 220.029 69.92C219.197 70.752 218.189 71.168 217.005 71.168ZM253.987 75.824V80H229.603V46.4H253.315V50.576H234.403V60.896H251.251V64.976H234.403V75.824H253.987ZM263.317 71.168C262.101 71.168 261.061 70.752 260.197 69.92C259.365 69.088 258.949 68.032 258.949 66.752C258.949 65.536 259.381 64.512 260.245 63.68C261.109 62.816 262.133 62.384 263.317 62.384C264.501 62.384 265.509 62.816 266.341 63.68C267.205 64.512 267.637 65.536 267.637 66.752C267.637 68.032 267.205 69.088 266.341 69.92C265.509 70.752 264.501 71.168 263.317 71.168ZM284.91 80.384C282.382 80.384 279.934 80 277.566 79.232C275.23 78.432 273.39 77.408 272.046 76.16L273.822 72.416C275.102 73.568 276.734 74.512 278.718 75.248C280.734 75.952 282.798 76.304 284.91 76.304C287.694 76.304 289.774 75.84 291.15 74.912C292.526 73.952 293.214 72.688 293.214 71.12C293.214 69.968 292.83 69.04 292.062 68.336C291.326 67.6 290.398 67.04 289.278 66.656C288.19 66.272 286.638 65.84 284.622 65.36C282.094 64.752 280.046 64.144 278.478 63.536C276.942 62.928 275.614 62 274.494 60.752C273.406 59.472 272.862 57.76 272.862 55.616C272.862 53.824 273.326 52.208 274.254 50.768C275.214 49.328 276.654 48.176 278.574 47.312C280.494 46.448 282.878 46.016 285.726 46.016C287.71 46.016 289.662 46.272 291.582 46.784C293.502 47.296 295.15 48.032 296.526 48.992L294.942 52.832C293.534 51.936 292.03 51.264 290.43 50.816C288.83 50.336 287.262 50.096 285.726 50.096C283.006 50.096 280.958 50.592 279.582 51.584C278.238 52.576 277.566 53.856 277.566 55.424C277.566 56.576 277.95 57.52 278.718 58.256C279.486 58.96 280.43 59.52 281.55 59.936C282.702 60.32 284.254 60.736 286.206 61.184C288.734 61.792 290.766 62.4 292.302 63.008C293.838 63.616 295.15 64.544 296.238 65.792C297.358 67.04 297.918 68.72 297.918 70.832C297.918 72.592 297.438 74.208 296.478 75.68C295.518 77.12 294.062 78.272 292.11 79.136C290.158 79.968 287.758 80.384 284.91 80.384Z" fill="#0C2C5D"/>
</svg>
