<svg width="392" height="340" viewBox="0 0 392 340" fill="none" xmlns="http://www.w3.org/2000/svg">
<rect width="392" height="340" rx="10" fill="#FAE0CF"/>
<rect x="46" y="108" width="300" height="200" fill="#D27E00" fill-opacity="0.5"/>
<path d="M165.968 200.2V217H164L153.92 204.472V217H151.52V200.2H153.488L163.568 212.728V200.2H165.968ZM178.581 217.192C176.885 217.192 175.357 216.824 173.997 216.088C172.637 215.336 171.565 214.304 170.781 212.992C170.013 211.68 169.629 210.216 169.629 208.6C169.629 206.984 170.013 205.52 170.781 204.208C171.565 202.896 172.637 201.872 173.997 201.136C175.357 200.384 176.885 200.008 178.581 200.008C180.261 200.008 181.781 200.384 183.141 201.136C184.501 201.872 185.565 202.896 186.333 204.208C187.101 205.504 187.485 206.968 187.485 208.6C187.485 210.232 187.101 211.704 186.333 213.016C185.565 214.312 184.501 215.336 183.141 216.088C181.781 216.824 180.261 217.192 178.581 217.192ZM178.581 215.056C179.813 215.056 180.917 214.776 181.893 214.216C182.885 213.656 183.661 212.888 184.221 211.912C184.797 210.92 185.085 209.816 185.085 208.6C185.085 207.384 184.797 206.288 184.221 205.312C183.661 204.32 182.885 203.544 181.893 202.984C180.917 202.424 179.813 202.144 178.581 202.144C177.349 202.144 176.229 202.424 175.221 202.984C174.229 203.544 173.445 204.32 172.869 205.312C172.309 206.288 172.029 207.384 172.029 208.6C172.029 209.816 172.309 210.92 172.869 211.912C173.445 212.888 174.229 213.656 175.221 214.216C176.229 214.776 177.349 215.056 178.581 215.056ZM197.598 200.2H199.998V217H197.598V200.2ZM220.604 217L220.58 204.76L214.508 214.96H213.404L207.332 204.832V217H205.028V200.2H206.996L214.004 212.008L220.916 200.2H222.884L222.908 217H220.604ZM239.59 208.504H241.894V215.056C241.062 215.744 240.094 216.272 238.99 216.64C237.886 217.008 236.734 217.192 235.534 217.192C233.838 217.192 232.31 216.824 230.95 216.088C229.59 215.336 228.518 214.312 227.734 213.016C226.966 211.704 226.582 210.232 226.582 208.6C226.582 206.968 226.966 205.496 227.734 204.184C228.518 202.872 229.59 201.848 230.95 201.112C232.326 200.376 233.87 200.008 235.582 200.008C236.926 200.008 238.142 200.232 239.23 200.68C240.334 201.112 241.27 201.752 242.038 202.6L240.55 204.088C239.206 202.792 237.582 202.144 235.678 202.144C234.398 202.144 233.246 202.424 232.222 202.984C231.214 203.528 230.422 204.296 229.846 205.288C229.27 206.264 228.982 207.368 228.982 208.6C228.982 209.816 229.27 210.92 229.846 211.912C230.422 212.888 231.214 213.656 232.222 214.216C233.246 214.776 234.39 215.056 235.654 215.056C237.158 215.056 238.47 214.696 239.59 213.976V208.504Z" fill="white"/>
<path d="M143.224 46.4L128.488 80H123.736L108.952 46.4H114.136L126.232 74L138.424 46.4H143.224ZM147.509 46.4H152.309V80H147.509V46.4ZM172.16 80.384C169.632 80.384 167.184 80 164.816 79.232C162.48 78.432 160.64 77.408 159.296 76.16L161.072 72.416C162.352 73.568 163.984 74.512 165.968 75.248C167.984 75.952 170.048 76.304 172.16 76.304C174.944 76.304 177.024 75.84 178.4 74.912C179.776 73.952 180.464 72.688 180.464 71.12C180.464 69.968 180.08 69.04 179.312 68.336C178.576 67.6 177.648 67.04 176.528 66.656C175.44 66.272 173.888 65.84 171.872 65.36C169.344 64.752 167.296 64.144 165.728 63.536C164.192 62.928 162.864 62 161.744 60.752C160.656 59.472 160.112 57.76 160.112 55.616C160.112 53.824 160.576 52.208 161.504 50.768C162.464 49.328 163.904 48.176 165.824 47.312C167.744 46.448 170.128 46.016 172.976 46.016C174.96 46.016 176.912 46.272 178.832 46.784C180.752 47.296 182.4 48.032 183.776 48.992L182.192 52.832C180.784 51.936 179.28 51.264 177.68 50.816C176.08 50.336 174.512 50.096 172.976 50.096C170.256 50.096 168.208 50.592 166.832 51.584C165.488 52.576 164.816 53.856 164.816 55.424C164.816 56.576 165.2 57.52 165.968 58.256C166.736 58.96 167.68 59.52 168.8 59.936C169.952 60.32 171.504 60.736 173.456 61.184C175.984 61.792 178.016 62.4 179.552 63.008C181.088 63.616 182.4 64.544 183.488 65.792C184.608 67.04 185.168 68.72 185.168 70.832C185.168 72.592 184.688 74.208 183.728 75.68C182.768 77.12 181.312 78.272 179.36 79.136C177.408 79.968 175.008 80.384 172.16 80.384ZM192.181 46.4H196.981V80H192.181V46.4ZM222.208 80.384C218.816 80.384 215.76 79.648 213.04 78.176C210.32 76.672 208.176 74.608 206.608 71.984C205.072 69.36 204.304 66.432 204.304 63.2C204.304 59.968 205.072 57.04 206.608 54.416C208.176 51.792 210.32 49.744 213.04 48.272C215.76 46.768 218.816 46.016 222.208 46.016C225.568 46.016 228.608 46.768 231.328 48.272C234.048 49.744 236.176 51.792 237.712 54.416C239.248 57.008 240.016 59.936 240.016 63.2C240.016 66.464 239.248 69.408 237.712 72.032C236.176 74.624 234.048 76.672 231.328 78.176C228.608 79.648 225.568 80.384 222.208 80.384ZM222.208 76.112C224.672 76.112 226.88 75.552 228.832 74.432C230.816 73.312 232.368 71.776 233.488 69.824C234.64 67.84 235.216 65.632 235.216 63.2C235.216 60.768 234.64 58.576 233.488 56.624C232.368 54.64 230.816 53.088 228.832 51.968C226.88 50.848 224.672 50.288 222.208 50.288C219.744 50.288 217.504 50.848 215.488 51.968C213.504 53.088 211.936 54.64 210.784 56.624C209.664 58.576 209.104 60.768 209.104 63.2C209.104 65.632 209.664 67.84 210.784 69.824C211.936 71.776 213.504 73.312 215.488 74.432C217.504 75.552 219.744 76.112 222.208 76.112ZM276.249 46.4V80H272.312L252.153 54.944V80H247.353V46.4H251.289L271.449 71.456V46.4H276.249Z" fill="#D27E00"/>
</svg>
