<svg width="50" height="50" viewBox="0 0 50 50" fill="none" xmlns="http://www.w3.org/2000/svg">
<path d="M0 5.31953V50H44.6793C47.6178 50 50 47.6178 50 44.6793V0H5.31953C2.38101 0 0 2.3822 0 5.31953ZM24.9988 8.65389C27.0565 8.65389 28.7266 10.3217 28.7266 12.3829C28.7266 14.443 27.0577 16.1107 24.9988 16.1107C22.9399 16.1107 21.271 14.443 21.271 12.3829C21.2722 10.3217 22.9399 8.65389 24.9988 8.65389ZM19.1907 21.8285C19.1907 20.5577 20.3295 19.5247 21.7322 19.5247C21.9509 19.5247 22.1471 19.5247 22.3492 19.5247H24.2737H27.6497V35.8459H33.8179V38.1496C33.8179 39.4204 32.6043 40.451 31.1065 40.451H27.6485H26.7581H22.348V24.1322H19.1895L19.1907 21.8285Z" fill="white"/>
</svg>
