<svg width="37" height="37" viewBox="0 0 37 37" fill="none" xmlns="http://www.w3.org/2000/svg">
<path d="M35.8437 0H19.6562C19.0179 0 18.5 0.51804 18.5 1.15622C18.5 1.7944 19.018 2.31244 19.6562 2.31244H34.6875V34.6874H19.6562C19.0179 34.6874 18.5 35.2054 18.5 35.8436C18.5 36.4818 19.018 36.9998 19.6562 36.9998H35.8437C36.482 36.9998 36.9999 36.4818 36.9999 35.8436V1.15622C37 0.51804 36.482 0 35.8437 0Z" fill="white"/>
<path d="M18.9544 25.7844C18.5023 26.2411 18.5023 26.9799 18.9544 27.4355C19.4065 27.8922 20.1384 27.8922 20.5894 27.4355L28.5663 19.3429C29.0115 18.8931 29.0161 18.1404 28.5663 17.6907L20.5882 9.59809C20.1361 9.14137 19.4042 9.14252 18.9533 9.59809C18.5012 10.0537 18.5012 10.7936 18.9533 11.2492L24.9658 17.3484H1.15622C0.51804 17.3484 0 17.871 0 18.5162C0 19.1614 0.51804 19.684 1.15622 19.684H24.9669L18.9544 25.7844Z" fill="white"/>
</svg>
