<svg width="200" height="200" viewBox="0 0 200 200" fill="none" xmlns="http://www.w3.org/2000/svg">
<path fill-rule="evenodd" clip-rule="evenodd" d="M101.758 22.719L111.998 32.689L111.998 32.689L132.758 52.829C133.094 53.1594 133.334 53.575 133.452 54.0312C133.57 54.4874 133.562 54.9671 133.428 55.419L120.328 100.419L95.9981 77.469L120.288 100.399L113.668 123.129C113.631 123.267 113.645 123.414 113.708 123.543C113.771 123.672 113.879 123.773 114.011 123.828C114.143 123.883 114.291 123.888 114.426 123.842C114.562 123.796 114.676 123.703 114.748 123.579L125.138 104.989L145.198 68.8091C145.418 68.4039 145.743 68.0655 146.139 67.8297C146.535 67.5938 146.987 67.4692 147.448 67.4691L170.138 67.369L185.218 67.319C185.559 67.315 185.897 67.3789 186.213 67.5069C186.529 67.6349 186.816 67.8245 187.058 68.0646C187.3 68.3047 187.492 68.5905 187.623 68.9055C187.753 69.2204 187.819 69.5581 187.818 69.899V73.679V107.819C187.823 108.282 187.701 108.738 187.467 109.138C187.233 109.538 186.895 109.866 186.488 110.089L151.8 129.082L151.798 129.089L151.178 129.409L137.578 116.649L125.171 105.02L137.55 116.673L137.578 116.649L151.168 129.459L130.758 140.669C130.636 140.743 130.544 140.857 130.498 140.992C130.453 141.127 130.457 141.274 130.51 141.407C130.563 141.539 130.661 141.648 130.787 141.715C130.913 141.781 131.059 141.8 131.198 141.769L157.098 135.049L173.548 130.799C173.98 130.691 174.433 130.697 174.863 130.816C175.292 130.936 175.683 131.164 175.998 131.479L194.428 149.969L194.448 149.969L198.148 153.679C198.628 154.165 198.896 154.821 198.896 155.504C198.896 156.187 198.628 156.843 198.148 157.329L189.368 165.559L172.63 149.739L172.609 149.739L189.368 165.559V165.559L175.998 178.109C175.694 178.413 175.313 178.63 174.896 178.735C174.479 178.841 174.041 178.832 173.628 178.709L138.758 173.049L142.259 161.223L138.738 173.049L119.048 169.849L100.363 148.921L119.048 169.859L109.518 168.309C103.179 167.289 96.7174 167.289 90.3781 168.309L74.3781 170.909L100.048 148.909L100.138 148.859L100.308 148.859L100.198 148.749L100.339 148.628L100.198 148.749L100.128 148.659V148.789L100.048 148.859L100.058 148.859L74.3881 170.899L61.9581 172.919L45.6581 175.559L7.62814 147.779L23.8581 131.479C24.1769 131.157 24.5749 130.925 25.012 130.805C25.4491 130.686 25.9099 130.684 26.3481 130.799L50.2281 136.989L50.2281 136.989L67.0881 141.359C67.2794 141.416 67.485 141.399 67.6644 141.312C67.8439 141.225 67.9843 141.074 68.0582 140.888C68.132 140.703 68.134 140.497 68.0637 140.31C67.9934 140.123 67.8559 139.97 67.6781 139.879L47.5881 128.879L47.5722 128.83L13.4081 110.089C12.9995 109.867 12.6583 109.539 12.4207 109.14C12.183 108.74 12.0578 108.284 12.0581 107.819V69.899C12.0568 69.5581 12.1233 69.2204 12.2537 68.9055C12.3841 68.5905 12.5759 68.3047 12.8179 68.0646C13.0599 67.8245 13.3472 67.6349 13.6631 67.5069C13.979 67.3789 14.3173 67.315 14.6581 67.319L27.5281 67.369L27.5282 67.3691L52.4381 67.4691C52.9001 67.4706 53.3533 67.5957 53.7507 67.8313C54.148 68.0669 54.4752 68.4045 54.6981 68.8091L85.0981 123.579C85.1615 123.718 85.2763 123.827 85.4185 123.883C85.5606 123.939 85.7189 123.938 85.8602 123.88C86.0014 123.822 86.1145 123.711 86.1757 123.571C86.2369 123.431 86.2413 123.272 86.1881 123.129L83.2581 113.049L83.2581 113.049L66.4681 55.419C66.3346 54.9671 66.3265 54.4874 66.4445 54.0312C66.5625 53.575 66.8022 53.1595 67.1381 52.829L68.5181 51.4991L93.1682 27.549L98.1682 22.719C98.6518 22.2575 99.2946 22 99.9632 22C100.632 22 101.275 22.2575 101.758 22.719ZM7.62814 147.779L1.74814 153.679C1.26874 154.166 1 154.821 1 155.504C1 156.187 1.26874 156.843 1.74814 157.329L23.9181 178.109C24.2226 178.413 24.6035 178.629 25.0206 178.735C25.4378 178.841 25.8757 178.832 26.2881 178.709L45.6681 175.569L7.62814 147.779ZM100.085 148.611L95.9981 77.4691L100.128 148.659L100.085 148.611ZM172.587 149.719L145.778 149.399L145.778 149.399L172.587 149.719Z" fill="white"/>
</svg>
