<svg width="12" height="12" viewBox="0 0 12 12" fill="none" xmlns="http://www.w3.org/2000/svg">
<g clip-path="url(#clip0)">
<path d="M11.8534 11.1466L8.44091 7.73417C9.10191 6.91769 9.4999 5.88019 9.4999 4.75021C9.4999 2.13123 7.36891 0.000244141 4.74994 0.000244141C2.13096 0.000244141 0 2.13121 0 4.75018C0 7.36916 2.13099 9.50015 4.74996 9.50015C5.87994 9.50015 6.91744 9.10216 7.73392 8.44116L11.1464 11.8536C11.2439 11.9511 11.3719 12.0001 11.4999 12.0001C11.6279 12.0001 11.7559 11.9511 11.8534 11.8536C12.0489 11.6581 12.0489 11.3421 11.8534 11.1466ZM4.74996 8.50015C2.68197 8.50015 0.999998 6.81817 0.999998 4.75018C0.999998 2.6822 2.68197 1.00022 4.74996 1.00022C6.81795 1.00022 8.49992 2.6822 8.49992 4.75018C8.49992 6.81817 6.81793 8.50015 4.74996 8.50015Z" fill="#5C9078"/>
</g>
<defs>
<clipPath id="clip0">
<rect width="12" height="12" fill="white"/>
</clipPath>
</defs>
</svg>
