<svg width="37" height="37" viewBox="0 0 37 37" fill="none" xmlns="http://www.w3.org/2000/svg">
<mask id="path-1-inside-1" fill="white">
<path fill-rule="evenodd" clip-rule="evenodd" d="M5 0C2.23858 0 0 2.23858 0 5V32C0 34.7614 2.23858 37 5 37H32C34.7614 37 37 34.7614 37 32V5C37 2.23858 34.7614 0 32 0H5ZM5 8C5 7.44771 5.44772 7 6 7H17C17.5523 7 18 7.44772 18 8V17C18 17.5523 17.5523 18 17 18H6C5.44772 18 5 17.5523 5 17V8ZM19.5968 8H31.1344C31.4641 8 31.7312 8.2672 31.7312 8.59677C31.7312 8.92635 31.4641 9.19355 31.1344 9.19355H19.5968C19.2671 9.19355 19 8.92635 19 8.59677C19 8.2672 19.2671 8 19.5968 8ZM5.59677 20H31.8548C32.1845 20 32.4516 20.2672 32.4516 20.5968C32.4516 20.9264 32.1845 21.1935 31.8548 21.1935H5.59677C5.26712 21.1935 5 20.9264 5 20.5968C5 20.2672 5.26712 20 5.59677 20ZM5.59677 24.1936H31.8548C32.1845 24.1936 32.4516 24.4608 32.4516 24.7904C32.4516 25.12 32.1845 25.3872 31.8548 25.3872H5.59677C5.26712 25.3872 5 25.12 5 24.7904C5 24.4608 5.26712 24.1936 5.59677 24.1936ZM31.8548 28.3872H5.59677C5.26712 28.3872 5 28.6544 5 28.984C5 29.3136 5.26712 29.5808 5.59677 29.5808H31.8548C32.1845 29.5808 32.4516 29.3136 32.4516 28.984C32.4516 28.6544 32.1845 28.3872 31.8548 28.3872ZM31.1344 12.1936H19.5968C19.2671 12.1936 19 12.4608 19 12.7904C19 13.12 19.2671 13.3872 19.5968 13.3872H31.1344C31.4641 13.3872 31.7312 13.12 31.7312 12.7904C31.7312 12.4608 31.4641 12.1936 31.1344 12.1936ZM19.5968 16.3872H31.1344C31.4641 16.3872 31.7312 16.6544 31.7312 16.984C31.7312 17.3136 31.4641 17.5808 31.1344 17.5808H19.5968C19.2671 17.5808 19 17.3136 19 16.984C19 16.6544 19.2671 16.3872 19.5968 16.3872Z"/>
</mask>
<path fill-rule="evenodd" clip-rule="evenodd" d="M5 0C2.23858 0 0 2.23858 0 5V32C0 34.7614 2.23858 37 5 37H32C34.7614 37 37 34.7614 37 32V5C37 2.23858 34.7614 0 32 0H5ZM5 8C5 7.44771 5.44772 7 6 7H17C17.5523 7 18 7.44772 18 8V17C18 17.5523 17.5523 18 17 18H6C5.44772 18 5 17.5523 5 17V8ZM19.5968 8H31.1344C31.4641 8 31.7312 8.2672 31.7312 8.59677C31.7312 8.92635 31.4641 9.19355 31.1344 9.19355H19.5968C19.2671 9.19355 19 8.92635 19 8.59677C19 8.2672 19.2671 8 19.5968 8ZM5.59677 20H31.8548C32.1845 20 32.4516 20.2672 32.4516 20.5968C32.4516 20.9264 32.1845 21.1935 31.8548 21.1935H5.59677C5.26712 21.1935 5 20.9264 5 20.5968C5 20.2672 5.26712 20 5.59677 20ZM5.59677 24.1936H31.8548C32.1845 24.1936 32.4516 24.4608 32.4516 24.7904C32.4516 25.12 32.1845 25.3872 31.8548 25.3872H5.59677C5.26712 25.3872 5 25.12 5 24.7904C5 24.4608 5.26712 24.1936 5.59677 24.1936ZM31.8548 28.3872H5.59677C5.26712 28.3872 5 28.6544 5 28.984C5 29.3136 5.26712 29.5808 5.59677 29.5808H31.8548C32.1845 29.5808 32.4516 29.3136 32.4516 28.984C32.4516 28.6544 32.1845 28.3872 31.8548 28.3872ZM31.1344 12.1936H19.5968C19.2671 12.1936 19 12.4608 19 12.7904C19 13.12 19.2671 13.3872 19.5968 13.3872H31.1344C31.4641 13.3872 31.7312 13.12 31.7312 12.7904C31.7312 12.4608 31.4641 12.1936 31.1344 12.1936ZM19.5968 16.3872H31.1344C31.4641 16.3872 31.7312 16.6544 31.7312 16.984C31.7312 17.3136 31.4641 17.5808 31.1344 17.5808H19.5968C19.2671 17.5808 19 17.3136 19 16.984C19 16.6544 19.2671 16.3872 19.5968 16.3872Z" fill="white"/>
<path d="M1 5C1 2.79086 2.79086 1 5 1V-1C1.68629 -1 -1 1.68629 -1 5H1ZM1 32V5H-1V32H1ZM5 36C2.79086 36 1 34.2091 1 32H-1C-1 35.3137 1.68629 38 5 38V36ZM32 36H5V38H32V36ZM36 32C36 34.2091 34.2091 36 32 36V38C35.3137 38 38 35.3137 38 32H36ZM36 5V32H38V5H36ZM32 1C34.2091 1 36 2.79086 36 5H38C38 1.68629 35.3137 -1 32 -1V1ZM5 1H32V-1H5V1ZM6 6C4.89543 6 4 6.89543 4 8H6V8V6ZM17 6H6V8H17V6ZM19 8C19 6.89543 18.1046 6 17 6V8H19ZM19 17V8H17V17H19ZM17 19C18.1046 19 19 18.1046 19 17H17V19ZM6 19H17V17H6V19ZM4 17C4 18.1046 4.89543 19 6 19V17H4ZM4 8V17H6V8H4ZM31.1344 7H19.5968V9H31.1344V7ZM32.7312 8.59677C32.7312 7.715 32.0164 7 31.1344 7V9C30.9117 9 30.7312 8.81939 30.7312 8.59677H32.7312ZM31.1344 10.1935C32.0164 10.1935 32.7312 9.47855 32.7312 8.59677H30.7312C30.7312 8.37416 30.9117 8.19355 31.1344 8.19355V10.1935ZM19.5968 10.1935H31.1344V8.19355H19.5968V10.1935ZM18 8.59677C18 9.47855 18.7147 10.1935 19.5968 10.1935V8.19355C19.8195 8.19355 20 8.37415 20 8.59677H18ZM19.5968 7C18.7147 7 18 7.715 18 8.59677H20C20 8.8194 19.8195 9 19.5968 9V7ZM31.8548 19H5.59677V21H31.8548V19ZM33.4516 20.5968C33.4516 19.715 32.7369 19 31.8548 19V21C31.6321 21 31.4516 20.8194 31.4516 20.5968H33.4516ZM31.8548 22.1935C32.7369 22.1935 33.4516 21.4785 33.4516 20.5968H31.4516C31.4516 20.3742 31.6321 20.1935 31.8548 20.1935V22.1935ZM5.59677 22.1935H31.8548V20.1935H5.59677V22.1935ZM4 20.5968C4 21.4786 4.71475 22.1935 5.59677 22.1935V20.1935C5.81949 20.1935 6 20.3742 6 20.5968H4ZM5.59677 19C4.71474 19 4 19.715 4 20.5968H6C6 20.8194 5.81949 21 5.59677 21V19ZM31.8548 23.1936H5.59677V25.1936H31.8548V23.1936ZM33.4516 24.7904C33.4516 23.9086 32.7369 23.1936 31.8548 23.1936V25.1936C31.6321 25.1936 31.4516 25.013 31.4516 24.7904H33.4516ZM31.8548 26.3872C32.7369 26.3872 33.4516 25.6722 33.4516 24.7904H31.4516C31.4516 24.5678 31.6321 24.3872 31.8548 24.3872V26.3872ZM5.59677 26.3872H31.8548V24.3872H5.59677V26.3872ZM4 24.7904C4 25.6722 4.71475 26.3872 5.59677 26.3872V24.3872C5.81949 24.3872 6 24.5678 6 24.7904H4ZM5.59677 23.1936C4.71474 23.1936 4 23.9086 4 24.7904H6C6 25.013 5.81949 25.1936 5.59677 25.1936V23.1936ZM5.59677 29.3872H31.8548V27.3872H5.59677V29.3872ZM6 28.984C6 29.2066 5.81949 29.3872 5.59677 29.3872V27.3872C4.71474 27.3872 4 28.1022 4 28.984H6ZM5.59677 28.5808C5.81949 28.5808 6 28.7614 6 28.984H4C4 29.8658 4.71475 30.5808 5.59677 30.5808V28.5808ZM31.8548 28.5808H5.59677V30.5808H31.8548V28.5808ZM31.4516 28.984C31.4516 28.7614 31.6321 28.5808 31.8548 28.5808V30.5808C32.7369 30.5808 33.4516 29.8658 33.4516 28.984H31.4516ZM31.8548 29.3872C31.6321 29.3872 31.4516 29.2066 31.4516 28.984H33.4516C33.4516 28.1022 32.7369 27.3872 31.8548 27.3872V29.3872ZM19.5968 13.1936H31.1344V11.1936H19.5968V13.1936ZM20 12.7904C20 13.013 19.8195 13.1936 19.5968 13.1936V11.1936C18.7147 11.1936 18 11.9086 18 12.7904H20ZM19.5968 12.3872C19.8195 12.3872 20 12.5678 20 12.7904H18C18 13.6722 18.7147 14.3872 19.5968 14.3872V12.3872ZM31.1344 12.3872H19.5968V14.3872H31.1344V12.3872ZM30.7312 12.7904C30.7312 12.5678 30.9117 12.3872 31.1344 12.3872V14.3872C32.0164 14.3872 32.7312 13.6722 32.7312 12.7904H30.7312ZM31.1344 13.1936C30.9117 13.1936 30.7312 13.013 30.7312 12.7904H32.7312C32.7312 11.9086 32.0164 11.1936 31.1344 11.1936V13.1936ZM31.1344 15.3872H19.5968V17.3872H31.1344V15.3872ZM32.7312 16.984C32.7312 16.1022 32.0164 15.3872 31.1344 15.3872V17.3872C30.9117 17.3872 30.7312 17.2066 30.7312 16.984H32.7312ZM31.1344 18.5808C32.0164 18.5808 32.7312 17.8658 32.7312 16.984H30.7312C30.7312 16.7614 30.9117 16.5808 31.1344 16.5808V18.5808ZM19.5968 18.5808H31.1344V16.5808H19.5968V18.5808ZM18 16.984C18 17.8658 18.7147 18.5808 19.5968 18.5808V16.5808C19.8195 16.5808 20 16.7614 20 16.984H18ZM19.5968 15.3872C18.7147 15.3872 18 16.1022 18 16.984H20C20 17.2066 19.8195 17.3872 19.5968 17.3872V15.3872Z" fill="white" mask="url(#path-1-inside-1)"/>
</svg>
