<svg width="37" height="37" viewBox="0 0 37 37" fill="none" xmlns="http://www.w3.org/2000/svg">
<g clip-path="url(#clip0)">
<path fill-rule="evenodd" clip-rule="evenodd" d="M12.0766 9.23037C12.0766 5.68841 14.9582 2.80688 18.5 2.80688C22.0419 2.80688 24.9235 5.68848 24.9235 9.23037C24.9235 11.6328 23.5975 13.7311 21.6392 14.8327C20.7104 15.3552 19.6395 15.6538 18.5 15.6538C17.3606 15.6538 16.2897 15.3552 15.3609 14.8327C13.4026 13.7311 12.0766 11.6328 12.0766 9.23037ZM27.112 22.3102C27.112 19.365 24.716 16.969 21.7709 16.969H15.2292C12.2841 16.969 9.88806 19.365 9.88806 22.3102V33.1247C9.88806 33.7146 10.3663 34.193 10.9563 34.193H26.0438C26.6338 34.193 27.112 33.7147 27.112 33.1247V22.3102ZM8.2026 19.7517C7.91093 20.5502 7.75159 21.4119 7.75159 22.3102V33.1248C7.75159 33.4993 7.81677 33.8586 7.93536 34.1931H3.2047C1.43758 34.1931 0 32.7554 0 30.9884V25.0929C0 22.1478 2.39604 19.7517 5.34116 19.7517H8.2026ZM28.7975 19.7517H31.6589C34.604 19.7517 37.0001 22.1478 37 25.0928V30.9883C37 32.7554 35.5624 34.193 33.7953 34.193H29.0647C29.1833 33.8587 29.2485 33.4993 29.2485 33.1248V22.3102C29.2485 21.412 29.0891 20.5502 28.7975 19.7517ZM7.22064 8.79395C4.57174 8.79395 2.41678 10.9489 2.41678 13.5978C2.41678 16.2467 4.57174 18.4017 7.22064 18.4017C7.89257 18.4017 8.53241 18.2625 9.11364 18.0123C10.1186 17.5797 10.9472 16.8138 11.4599 15.8545C11.8198 15.1812 12.0245 14.413 12.0245 13.5978C12.0245 10.949 9.86954 8.79395 7.22064 8.79395ZM24.9756 13.5978C24.9756 10.9489 27.1305 8.79395 29.7794 8.79395C32.4283 8.79395 34.5833 10.9489 34.5833 13.5978C34.5833 16.2467 32.4283 18.4017 29.7794 18.4017C29.1075 18.4017 28.4677 18.2625 27.8864 18.0123C26.8815 17.5797 26.0529 16.8139 25.5402 15.8545C25.1803 15.1812 24.9756 14.4131 24.9756 13.5978Z" fill="white"/>
</g>
<defs>
<clipPath id="clip0">
<rect width="37" height="37" fill="white"/>
</clipPath>
</defs>
</svg>
