<svg width="37" height="37" viewBox="0 0 37 37" fill="none" xmlns="http://www.w3.org/2000/svg">
<path d="M30.1145 33.0894C30.217 33.3321 30.2691 33.5784 30.2691 33.8282C30.2691 34.1742 30.1775 34.496 29.9932 34.7962C29.8099 35.0955 29.5519 35.3247 29.2212 35.4829L27.6663 36.2109C27.0596 36.4868 26.452 36.6872 25.8436 36.8122C25.2351 36.9371 24.6203 37 23.9984 37C22.998 37 22.0103 36.8337 21.0342 36.5012C20.0581 36.1686 19.1243 35.6923 18.2327 35.073C17.3411 34.4538 16.5043 33.7042 15.7233 32.8261C14.9423 31.9471 14.2421 30.9674 13.6247 29.8862C13.231 29.2867 12.8176 28.6027 12.3835 27.8343C12.0159 27.1799 11.5961 26.3962 11.1234 25.4822C10.6506 24.569 10.1743 23.5543 9.69251 22.4407C9.19998 21.3262 8.80901 20.3528 8.5205 19.5206C8.23199 18.6874 8.0082 17.9953 7.85091 17.4444C7.66666 16.8009 7.53994 16.249 7.47073 15.7897C7.21727 14.9368 7.03033 14.0883 6.91079 13.2444C6.79125 12.4004 6.73193 11.5646 6.73193 10.7377C6.73193 9.65647 6.84069 8.61659 7.05729 7.61625C7.2739 6.61591 7.60734 5.68567 8.05583 4.82554C8.50432 3.96541 9.07325 3.19606 9.76261 2.51748C10.452 1.8389 11.2672 1.28705 12.2082 0.860131L13.7415 0.15459C13.9833 0.0512304 14.2259 0 14.4686 0C14.8102 0 15.1283 0.0943717 15.4231 0.284014C15.717 0.473656 15.9381 0.735201 16.0846 1.06955L19.0353 7.76994C19.1387 8.01261 19.1899 8.25528 19.1899 8.49795C19.1899 8.85476 19.0982 9.18461 18.914 9.4875C18.7297 9.79039 18.4709 10.0178 18.1365 10.1688L15.1032 11.5637C14.7023 11.7479 14.3958 12.0176 14.1819 12.3744C13.9689 12.7312 13.8619 13.115 13.8619 13.5266C13.8619 13.8394 13.9204 14.1333 14.0381 14.4092L19.0182 25.7815C19.2133 26.2192 19.482 26.5409 19.8262 26.7467C20.1696 26.9526 20.5444 27.0559 20.9488 27.0559C21.2247 27.0559 21.506 26.993 21.7928 26.8681L24.8261 25.4732C25.0652 25.3707 25.3061 25.3186 25.5488 25.3186C25.8831 25.3186 26.1995 25.413 26.497 25.6026C26.7945 25.7922 27.0192 26.052 27.1701 26.3827L30.1145 33.0894Z" fill="white"/>
</svg>
