<svg width="50" height="50" viewBox="0 0 50 50" fill="none" xmlns="http://www.w3.org/2000/svg">
<path fill-rule="evenodd" clip-rule="evenodd" d="M2.76846 0H19.7148C21.195 0 22.3993 1.20436 22.3993 2.68456V19.6309C22.3993 21.1111 21.195 22.3154 19.7148 22.3154H2.76846C1.28826 22.3154 0.0838928 21.1111 0.0838928 19.6309V2.68456C0.0838928 1.20436 1.28826 0 2.76846 0ZM30.2852 0H47.2315C48.7117 0 49.9161 1.20436 49.9161 2.68456V19.6309C49.9161 21.1111 48.7117 22.3154 47.2315 22.3154H30.2852C28.805 22.3154 27.6007 21.1111 27.6007 19.6309V2.68456C27.6007 1.20436 28.805 0 30.2852 0ZM19.7148 27.6846H2.76846C1.28826 27.6846 0.0838928 28.8889 0.0838928 30.3691V47.3154C0.0838928 48.7956 1.28826 50 2.76846 50H19.7148C21.195 50 22.3993 48.7956 22.3993 47.3154V30.3691C22.3993 28.8889 21.195 27.6846 19.7148 27.6846ZM30.2852 27.6846H47.2315C48.7117 27.6846 49.9161 28.8889 49.9161 30.3691V47.3154C49.9161 48.7956 48.7117 50 47.2315 50H30.2852C28.805 50 27.6007 48.7956 27.6007 47.3154V30.3691C27.6007 28.8889 28.805 27.6846 30.2852 27.6846Z" fill="white"/>
</svg>
